PathFileType	4	(X/Y/Z)	/Users/itak/Documents/Research/Walk-IL/dataset/trc/00506_00183.trc
DataRate	CameraRate	NumFrames	NumMarkers	Units	OrigDataRate	OrigDataStartFrame	OrigNumFrames
100.000000	100.000000	4	53	mm	100.000000	263	421
Frame#	Time	RPSI			LPSI			L3			STRN			T10			C7			CLAV			RBAK			LBAK			LSHO			LUPA			LAEL			LAOL			LWTS			LWPS			LFRA			LIFD			LHPS			LHTS			RSHO			RUPA			RAEL			RAOL			RWTS			RWPS			RFRA			RIFD			RHTS			RHPS			RBHD			LFHD			RFHD			LBHD			LHIP			RHIP			RASI			LASI			LKNE			LTHI			LANK			LTIP			LTOE			LMT1			LMT5			LHEE			RKNE			RTHI			RANK			RTIP			RTOE			RMT1			RMT5			RHEE			
		X1	Y1	Z1	X2	Y2	Z2	X3	Y3	Z3	X4	Y4	Z4	X5	Y5	Z5	X6	Y6	Z6	X7	Y7	Z7	X8	Y8	Z8	X9	Y9	Z9	X10	Y10	Z10	X11	Y11	Z11	X12	Y12	Z12	X13	Y13	Z13	X14	Y14	Z14	X15	Y15	Z15	X16	Y16	Z16	X17	Y17	Z17	X18	Y18	Z18	X19	Y19	Z19	X20	Y20	Z20	X21	Y21	Z21	X22	Y22	Z22	X23	Y23	Z23	X24	Y24	Z24	X25	Y25	Z25	X26	Y26	Z26	X27	Y27	Z27	X28	Y28	Z28	X29	Y29	Z29	X30	Y30	Z30	X31	Y31	Z31	X32	Y32	Z32	X33	Y33	Z33	X34	Y34	Z34	X35	Y35	Z35	X36	Y36	Z36	X37	Y37	Z37	X38	Y38	Z38	X39	Y39	Z39	X40	Y40	Z40	X41	Y41	Z41	X42	Y42	Z42	X43	Y43	Z43	X44	Y44	Z44	X45	Y45	Z45	X46	Y46	Z46	X47	Y47	Z47	X48	Y48	Z48	X49	Y49	Z49	X50	Y50	Z50	X51	Y51	Z51	X52	Y52	Z52	X53	Y53	Z53	

264	2.63	898.7442016601562	923.9053955078125	742.6709594726562	984.6727294921875	914.3535766601562	654.5903930664062	942.5555419921875	998.9437255859375	709.7198486328125	1132.343872070312	1167.241577148438	823.0712890625	923.4907836914062	1104.184448242188	716.3843994140625	953.8427124023438	1334.896484375	749.380615234375	1095.986450195312	1260.656860351562	807.8353271484375	876.6494750976562	1207.332641601562	801.0525512695312	967.7503662109375	1285.014526367188	661.5748901367188	1082.035278320312	1333.2626953125	632.688720703125	1056.501098632812	1237.695190429688	550.6840209960938	989.7157592773438	1067.59375	470.4058532714844	913.2429809570312	1054.574462890625	536.2992553710938	1108.185546875	897.5363159179688	463.4327697753906	1030.632568359375	844.9913940429688	455.9584350585938	1011.998413085938	999.1644897460938	454.79833984375	1147.605834960938	751.2572021484375	469.7810974121094	1060.82861328125	800.6262817382812	440.8092041015625	1123.06396484375	823.461669921875	433.5662231445312	942.043701171875	1323.628784179688	906.3016357421875	911.5322875976562	1252.025146484375	953.6527709960938	951.09228515625	1016.60205078125	996.8262329101562	936.486083984375	958.9107055664062	967.2349853515625	1160.861450195312	1065.480224609375	977.7279052734375	1163.285034179688	999.84228515625	1041.45458984375	997.077880859375	996.5714111328125	1014.018432617188	1319.147094726562	1029.35302734375	990.8936767578125	1256.752197265625	1062.368041992188	1004.689514160156	1240.12841796875	1004.216247558594	1042.3701171875	919.9786987304688	1462.83984375	822.8363647460938	1072.136108398438	1573.017333984375	753.8018188476562	1006.572998046875	1563.837280273438	862.4949340820312	992.63232421875	1465.821655273438	681.5772094726562	1156.807373046875	849.2321166992188	644.942138671875	893.2896728515625	844.9263916015625	919.0597534179688	1007.306274414062	895.68505859375	930.3146362304688	1169.508544921875	899.2437744140625	753.3426513671875	1273.704956054688	480.3621826171875	810.2305297851562	1238.3779296875	620.3831176757812	743.802734375	1292.571899414062	40.56026840209961	815.2429809570312	1296.306762695312	329.3165283203125	814.9945068359375	1410.910278320312	28.20732688903809	984.7401123046875	1329.011108398438	38.61235046386719	963.5331420898438	1383.200317382812	30.34235572814941	876.1451416015625	1218.950439453125	38.41009902954102	834.0386352539062	998.4227905273438	467.5552368164062	972.2300415039062	932.4902954101562	720.9329833984375	956.2373046875	757.73876953125	195.8378295898438	751.1111450195312	954.7109985351562	353.4653015136719	927.822021484375	873.5254516601562	41.46332931518555	806.445556640625	873.0743408203125	92.91676330566406	751.8593139648438	792.1907958984375	101.321044921875	803.52392578125	763.5382080078125	232.0890045166016	690.1192016601562	
265	2.64	910.153564453125	914.2579345703125	748.3178100585938	996.3034057617188	907.0206909179688	659.9630737304688	954.2213745117188	992.0366821289062	714.9400024414062	1143.29248046875	1160.043090820312	832.0902099609375	936.33984375	1097.768920898438	721.4343872070312	967.0039672851562	1328.785278320312	755.8978881835938	1107.697387695312	1253.575927734375	816.7346801757812	888.3698120117188	1201.13623046875	805.6171264648438	982.5518188476562	1278.32275390625	667.502685546875	1097.378662109375	1326.634765625	640.801513671875	1076.352172851562	1228.336547851562	558.8532104492188	1016.302429199219	1055.510620117188	478.0230712890625	937.0723266601562	1042.791381835938	540.345703125	1135.511474609375	887.36181640625	478.6835632324219	1059.112182617188	833.9050903320312	467.8826293945312	1039.674072265625	987.0664672851562	464.5430297851562	1176.0439453125	742.0687255859375	489.5087280273438	1090.604125976562	789.6060791015625	455.0186157226562	1152.746215820312	813.1505737304688	450.6459655761719	952.3193359375	1317.174194335938	913.0111694335938	920.5580444335938	1245	958.7816162109375	956.6864624023438	1009.141479492188	999.9214477539062	942.9390258789062	951.7960205078125	969.5301513671875	1166.502197265625	1059.166625976562	984.11279296875	1167.934814453125	993.6764526367188	1047.941040039062	1002.695983886719	989.15966796875	1017.789428710938	1324.588500976562	1024.376831054688	1001.289978027344	1261.619750976562	1056.931030273438	1013.547241210938	1244.552490234375	998.5399169921875	1050.722045898438	933.1718139648438	1456.628662109375	829.5509033203125	1085.407836914062	1566.77099609375	760.6367797851562	1019.271545410156	1558.191772460938	869.0347900390625	1006.658752441406	1458.792846679688	688.7860717773438	1169.084838867188	843.31494140625	650.1161499023438	905.6199340820312	835.5230712890625	924.4187622070312	1019.000122070312	888.327880859375	936.0564575195312	1181.703735351562	892.9043579101562	758.7321166992188	1285.264770507812	476.5752258300781	820.853759765625	1250.51123046875	615.4887084960938	752.2305297851562	1290.739135742188	38.26717758178711	816.5293579101562	1303.312377929688	325.1049499511719	823.8341064453125	1410.358276367188	25.76083755493164	986.2452392578125	1327.295288085938	34.89434814453125	964.7783203125	1381.721069335938	29.60764694213867	877.4066162109375	1216.845336914062	33.65018081665039	834.9786376953125	1019.812194824219	463.7027587890625	986.836181640625	947.4449462890625	713.8658447265625	964.1233520507812	776.5635375976562	200.5528411865234	764.3566284179688	975.833740234375	352.5431213378906	942.6627197265625	888.141357421875	44.58524322509766	824.9361572265625	889.3583984375	94.0081787109375	768.6156616210938	808.3938598632812	107.0629653930664	819.785400390625	783.3193359375	235.0760040283203	702.4425048828125	
266	2.65	920.8734741210938	904.9364013671875	754.1194458007812	1007.011779785156	900.1286010742188	665.318115234375	965.09912109375	985.5260009765625	720.1287231445312	1153.755493164062	1152.994140625	840.88427734375	948.5162353515625	1091.771728515625	726.4782104492188	979.7682495117188	1323.039184570312	762.399169921875	1118.980224609375	1246.652465820312	825.4635620117188	899.6737060546875	1195.383056640625	810.249267578125	996.8213500976562	1272.004150390625	673.4105224609375	1112.253295898438	1320.179809570312	648.8619995117188	1096.125366210938	1218.842163085938	567.3181762695312	1043.75390625	1042.994873046875	486.53759765625	961.8427734375	1030.3837890625	544.9232788085938	1163.523071289062	877.2009887695312	495.0361633300781	1088.57080078125	822.6712646484375	480.7587280273438	1068.314819335938	974.5791015625	475.3143310546875	1205.196899414062	733.0881958007812	510.3423461914062	1121.373657226562	778.5550537109375	470.25390625	1183.229248046875	802.9801635742188	468.8837280273438	962.3997802734375	1311.000854492188	919.6731567382812	929.2991333007812	1238.304077148438	963.753662109375	961.5806884765625	1001.881103515625	1002.66845703125	948.4513549804688	945.0301513671875	971.4190063476562	1171.726928710938	1051.699951171875	990.8062744140625	1171.4892578125	986.2825927734375	1054.549072265625	1007.43701171875	981.6834716796875	1021.29296875	1329.138793945312	1017.024169921875	1012.589294433594	1265.875366210938	1049.58447265625	1023.021484375	1247.785400390625	991.0750732421875	1059.542358398438	946.0445556640625	1450.658935546875	836.1935424804688	1098.425048828125	1560.755615234375	767.5283813476562	1031.681274414062	1552.717529296875	875.6144409179688	1020.425109863281	1452.060180664062	695.9303588867188	1180.439575195312	837.967041015625	654.7968139648438	917.67529296875	826.3043823242188	929.8825073242188	1030.458740234375	881.1253662109375	941.6900634765625	1193.208618164062	887.0240478515625	763.6406860351562	1296.833129882812	473.5838928222656	831.0681762695312	1262.325805664062	611.3682250976562	760.198486328125	1289.209594726562	36.88779449462891	817.6256713867188	1310.612426757812	321.8109130859375	832.3719482421875	1410.194702148438	24.1506519317627	987.2888793945312	1326.044555664062	32.10064315795898	965.6594848632812	1380.5673828125	29.38092803955078	878.28515625	1215.1015625	30.2034969329834	835.784423828125	1041.463012695312	460.693359375	1001.018432617188	962.2662353515625	707.082763671875	971.9208374023438	796.5484619140625	203.7698974609375	778.6395263671875	997.61376953125	351.9900207519531	957.447998046875	905.3723754882812	47.57411956787109	844.11865234375	907.49462890625	94.68642425537109	786.0576171875	826.763427734375	111.8348007202148	837.0958251953125	803.7498168945312	236.4461059570312	715.8101196289062	
267	2.66	930.9356079101562	896.2819213867188	760.0758056640625	1016.850769042969	893.9041137695312	670.6932373046875	975.2265014648438	979.6216430664062	725.3120727539062	1163.75830078125	1146.33349609375	849.4248657226562	959.9940795898438	1086.3720703125	731.5319213867188	992.0779418945312	1317.813354492188	768.83642578125	1129.81396484375	1240.110595703125	833.9725341796875	910.531982421875	1190.237060546875	814.9627685546875	1010.485595703125	1266.25048828125	679.2901611328125	1126.585327148438	1314.098876953125	656.8532104492188	1115.669189453125	1209.544677734375	576.09423828125	1071.857299804688	1030.449951171875	496.0865478515625	987.3958740234375	1017.739685058594	550.179931640625	1191.954956054688	867.4166870117188	512.509765625	1118.739868164062	811.6754760742188	494.6592102050781	1097.695922851562	962.1104125976562	487.218994140625	1234.763671875	724.6416625976562	532.2265014648438	1152.835083007812	767.866455078125	486.5667724609375	1214.198364257812	793.3187866210938	488.2918090820312	972.251953125	1305.287719726562	926.2384033203125	937.7466430664062	1232.1435546875	968.5786743164062	965.8364868164062	995.0405883789062	1005.120971679688	953.064208984375	938.8373413085938	972.9522705078125	1176.572509765625	1043.22119140625	997.7957153320312	1174.002807617188	977.8076782226562	1061.235107421875	1011.333862304688	974.344970703125	1024.536376953125	1332.76953125	1007.269775390625	1024.588134765625	1269.568603515625	1040.367797851562	1032.978271484375	1249.874755859375	981.9155883789062	1068.7109375	958.5465698242188	1445.144409179688	842.73779296875	1111.182983398438	1555.126708984375	774.4668579101562	1043.805541992188	1547.577270507812	882.2264404296875	1033.864013671875	1445.840454101562	702.9751586914062	1190.906860351562	833.358642578125	659.0888671875	929.4205322265625	817.609375	935.4684448242188	1041.658203125	874.3399047851562	947.2313842773438	1204.026733398438	881.81396484375	768.1565551757812	1308.313354492188	471.3221435546875	840.6859130859375	1273.797973632812	608.0733642578125	767.6533813476562	1288.091430664062	36.29534530639648	818.593017578125	1318.155639648438	319.3359069824219	840.4447021484375	1410.373901367188	23.21893882751465	988.0262451171875	1325.28125	30.14045333862305	966.290283203125	1379.802978515625	29.50650024414062	878.9097900390625	1213.81591796875	28.01069831848145	836.5216064453125	1063.192260742188	458.7392272949219	1014.668395996094	976.8406982421875	700.8538818359375	979.5808715820312	817.5592651367188	205.309814453125	793.8853149414062	1019.86328125	351.92041015625	972.0896606445312	925.233642578125	50.26570510864258	863.794677734375	927.5116577148438	94.91471862792969	804.0656127929688	847.2151489257812	115.3743896484375	855.2587890625	824.7330932617188	236.1077880859375	730.1931762695312	
